<?xml version="1.0" encoding="UTF-8"?><svg xmlns="http://www.w3.org/2000/svg" viewBox="0 0 400.9 523.07"><defs><style>.cls-1{fill:#f7ea99;}.cls-2{fill:#eaca00;}.cls-3{fill:#331c38;}.cls-4{fill:#bd9955;}.cls-5{fill:#2a515e;}.cls-6{fill:#386b7d;}.cls-7{fill:#4d2a54;}.cls-8{stroke:#231f20;stroke-width:5px;}.cls-8,.cls-9{fill:none;}.cls-9{stroke:#292b2a;stroke-miterlimit:10;stroke-width:2px;}</style></defs><g id="logo_-_only"><g><path class="cls-1" d="m378.09,356.06c-16.75,11.54-22.46,23.84-18.54,39.88,3.77,15.42,16.62,26.11,26.74,32.35,4.7,2.9,9.66,5.41,14.63,7.59v-92.33c-8,3.57-15.66,7.57-22.82,12.52Z"/><path class="cls-2" d="m374.64,447.13c-19.56-12.08-32.22-27.96-36.61-45.94-6.16-25.21,3.08-46.54,27.49-63.37,11.19-7.72,23.21-13.43,35.39-18.32v-28.7c-1.79.58-3.59,1.17-5.37,1.74-24.24,7.73-47.14,15.04-65.46,33.35-.15.16-.32.31-.47.48-2.84,2.87-5.42,6.08-7.7,9.54-10.73,16.35-14.85,39.15-11.33,62.56,1.34,8.88,3.75,17.45,7.19,25.45,1.74,4.05,3.76,8.01,6,11.71,20.94,34.79,60.3,47.59,77.14,51.63v-27.5c-8.69-3.26-17.77-7.37-26.27-12.62Z"/><path class="cls-4" d="m304.79,447.05c-2.76-4.57-5.24-9.43-7.39-14.42-4.17-9.73-7.1-20.12-8.72-30.87-4.33-28.73,1.03-57.17,14.72-78.01,3.07-4.68,6.58-9.02,10.43-12.94.18-.19.39-.39.6-.59,22.11-22.11,48.68-30.58,74.38-38.78,4.1-1.31,8.12-2.6,12.09-3.93v-70.05c-4.58,1.15-9.12,2.42-13.59,3.93-18.52,6.27-40.05,18.44-59.06,33.4-67.12,52.8-103.32,158.93-50.18,232.77,19.22,26.69,45.8,44.8,65.29,55.52h37.31c8.71,0,16.12-5.62,18.95-13.37-17.65-3.66-67.74-17.66-94.82-62.65Z"/><path class="cls-6" d="m231.29,142.21c1.93,6.04,3.6,12.32,4.97,18.66,1.99,9.17,3.41,18.78,4.23,28.57,3.5,41.92-10.37,73.95-25.04,107.86-3.81,8.79-7.75,17.89-11.38,27.21-3.68,9.45-6.81,19.01-9.29,28.43-3.2,12.08-5.38,24.08-6.49,35.72-4.95,51.62,10.43,96.53,45.55,134.43h68.65c-14.69-11.07-29.81-25.1-42.39-42.58-60.56-84.15-20.73-203.98,54.45-263.12,20.92-16.44,44.85-29.92,65.67-36.96,6.79-2.29,13.7-4.19,20.69-5.74v-32.27c0-11.13-9.1-20.24-20.24-20.24h-120.68c-11.14,0-20.24-9.1-20.24-20.24V20.23C239.75,9.11,230.64,0,219.51,0H20.24C15.9,0,11.89,1.41,8.58,3.76c146.96,8.88,202.89,76.28,222.7,138.45Z"/><path class="cls-5" d="m164.78,386.39c1.23-12.91,3.64-26.19,7.17-39.5,2.7-10.27,6.11-20.68,10.11-30.95,3.79-9.72,7.81-19.02,11.71-28.02,14.05-32.47,26.19-60.5,23.18-96.52-.73-8.76-2-17.36-3.77-25.53-1.21-5.62-2.69-11.16-4.39-16.49C184.65,73.64,113.22,32.22,0,26.97v94.63c19.14-4.49,38.99-8.29,58.61-8.68,6.57-.13,12.95.12,18.97.78,6.15.67,12.1,1.76,17.68,3.26,33.76,9.02,54.9,34.68,56.58,68.66.64,12.71-.79,24.62-2.1,32.37-3.15,18.62-8.28,37.31-13.24,55.39-9,32.77-18.29,66.65-15.88,100.67,4.25,59.9,29.24,111.32,54.53,149.03h28.05c-35.91-47.16-42.25-96.68-38.42-136.68Z"/><path class="cls-7" d="m97.07,375.72c-2.7-38.05,7.14-73.91,16.66-108.58,5.03-18.34,9.78-35.65,12.73-53.09,1.11-6.59,2.33-16.67,1.8-27.25-1.17-23.91-15.05-40.61-39.08-47.02-4.43-1.19-9.19-2.06-14.14-2.6-5.02-.54-10.41-.77-15.95-.65-19.34.39-39.01,4.46-59.09,9.33v51.32c29.06-2.51,69.85,1.05,83.77,37.07,2.96,7.65,4.45,16.43,4.41,26.08-.02,5.79-.58,12.02-1.68,18.49-3.29,19.55-9.66,37.95-15.8,55.74-7.55,21.85-14.69,42.49-16.39,64.7-.34,4.4-.55,8.73-.64,13.02-.18,9.12.19,18.41,1.12,27.61,3.31,32.9,13.31,61.17,23.93,83.19h68.08c-23.86-38.78-45.58-89.02-49.72-147.36Z"/><path class="cls-3" d="m31.29,442.24c-1.01-10.13-1.43-20.38-1.23-30.45.1-4.72.33-9.5.7-14.34,1.94-25.24,9.91-48.3,17.62-70.6,6.1-17.66,11.86-34.34,14.84-51.95.87-5.22,1.33-10.15,1.35-14.66.02-6.69-.92-12.58-2.82-17.47-8.7-22.5-39.37-23.97-61.75-21.74v281.81c0,11.13,9.1,20.24,20.24,20.24h32.43c-9.72-22.38-18.23-49.62-21.38-80.84Z"/></g></g><g id="SGID_30"><polygon id="Inside" class="cls-9" points="-3860.87 5546.48 -3899.14 5546.48 -3850.67 5462.53 -3884.79 5403.44 -3953.02 5403.44 -3987.14 5462.53 -3938.67 5546.48 -3976.94 5546.48 -4025.4 5462.53 -3972.15 5370.3 -3865.66 5370.3 -3812.41 5462.53 -3860.87 5546.48"/><polygon id="Middle" class="cls-9" points="-3722.8 5462.53 -3820.85 5292.7 -3875.22 5292.7 -3875.22 5325.84 -3839.98 5325.84 -3761.06 5462.53 -3839.98 5599.22 -3997.82 5599.22 -4076.74 5462.53 -3997.82 5325.84 -3962.59 5325.84 -3962.59 5292.7 -4016.96 5292.7 -4115.01 5462.53 -4016.96 5632.36 -3820.85 5632.36 -3722.8 5462.53"/><polygon id="Outside" class="cls-9" points="-3633.2 5462.53 -3776.05 5215.1 -4061.76 5215.1 -4204.61 5462.53 -4061.76 5709.96 -3981.9 5709.96 -3981.9 5676.83 -4042.63 5676.83 -4166.35 5462.53 -4042.63 5248.24 -3795.18 5248.24 -3671.46 5462.53 -3795.18 5676.83 -3866.53 5676.83 -3866.53 5709.96 -3776.05 5709.96 -3633.2 5462.53"/></g><g id="SGID_wavy"><path id="SGID_clipping_mask" class="cls-8" d="m2341.13,5702.06h-55.06l69.74-120.79-49.09-85.03h-98.19l-49.09,85.03,69.74,120.79h-55.06l-69.74-120.79,76.62-132.71h153.24l76.62,132.71-69.74,120.79Zm198.68-120.79l-141.09-244.38h-78.23v47.68h50.7l113.56,196.69-113.56,196.69h-227.12l-113.56-196.69,113.56-196.69h50.7v-47.68h-78.23l-141.09,244.38,141.09,244.38h282.18l141.09-244.38Zm128.94,0l-205.56-356.04h-411.12l-205.56,356.04,205.56,356.04h140.73v-47.68h-113.2l-178.03-308.36,178.03-308.36h356.06l178.03,308.36-178.03,308.36h-117.87v47.68h145.4l205.56-356.04Z"/></g></svg>
